<?xml version="1.0" standalone="no"?>
<!DOCTYPE svg PUBLIC "-//W3C//DTD SVG 1.1//EN" "http://www.w3.org/Graphics/SVG/1.1/DTD/svg11.dtd">
<svg width="41.10000000000001mm" height="52.80000000000004mm"
 viewBox="0 0 41.10000000000001 52.80000000000004"
 xmlns="http://www.w3.org/2000/svg" version="1.1"
 xmlns:xlink="http://www.w3.org/1999/xlink">
<desc>Output from Flights of Ideas SVG Sketchup Plugin</desc>

  <path id="face0-cut"
 style="fill:none;stroke:#0000FF;stroke-width:0.1;stroke-miterlimit:4;stroke-dasharray:none;stroke-linejoin:round;stroke-linecap:round"
        d="M 27.92053178924012,15.744346291883858 M 27.92053178924012,12.443946291883833 M 27.120531789240122,12.443946291883833 L 27.120531782990124,15.744346291883858 "
  />
  <path id="face1-cut"
 style="fill:none;stroke:#0000FF;stroke-width:0.1;stroke-miterlimit:4;stroke-dasharray:none;stroke-linejoin:round;stroke-linecap:round"
        d="M 12.121131789240135,12.443946291883833 M 12.121131789240138,15.744346291883858 M 12.921131788906788,15.744346291883858 L 12.921131789240135,12.443946291883833 "
  />
  <path id="face2-cut"
 style="fill:none;stroke:#0000FF;stroke-width:0.1;stroke-miterlimit:4;stroke-dasharray:none;stroke-linejoin:round;stroke-linecap:round"
        d="M 27.92053178924012,39.54454629188385 M 27.92053178924012,36.24414629188385 M 27.120531789240122,36.24414629188385 L 27.120531789240122,39.54454629188385 "
  />
  <path id="face3-cut"
 style="fill:none;stroke:#0000FF;stroke-width:0.1;stroke-miterlimit:4;stroke-dasharray:none;stroke-linejoin:round;stroke-linecap:round"
        d="M 12.121131789240138,36.24414629188385 M 12.121131789240138,39.54454629188385 M 12.921131789240139,39.54454629188385 L 12.921131789240139,36.24414629188385 "
  />
  <path id="face4-cut"
 style="fill:none;stroke:#0000FF;stroke-width:0.1;stroke-miterlimit:4;stroke-dasharray:none;stroke-linejoin:round;stroke-linecap:round"
        d="M 31.100000000000012,42.80000000000004 L 31.100000000000012,10.000000000000028 L 10.000000000000007,10.0 L 10.0,42.80000000000004 L 31.100000000000012,42.80000000000004 M 12.921131789240135,12.443946291883833 L 27.120531789240122,12.443946291883833 M 27.92053178924012,12.443946291883833 M 27.92053178924012,15.744346291883858 M 27.120531782990124,15.744346291883858 L 12.921131788906788,15.744346291883858 M 12.121131789240138,15.744346291883858 M 12.121131789240135,12.443946291883833 M 13.67083178924014,18.99384629188384 L 27.67023178924013,18.99384629188384 L 27.67023178924013,32.99334629188385 L 13.670831789240147,32.99334629188385 L 13.67083178924014,18.99384629188384 M 12.921131789240139,36.24414629188385 L 27.120531789240122,36.24414629188385 M 27.92053178924012,36.24414629188385 M 27.92053178924012,39.54454629188385 M 27.120531789240122,39.54454629188385 L 12.921131789240139,39.54454629188385 M 12.121131789240138,39.54454629188385 M 12.121131789240138,36.24414629188385 "
  />
  <path id="face0-interior"
 style="fill:none;stroke:#FF0000;stroke-width:0.1;stroke-miterlimit:4;stroke-dasharray:none;stroke-linejoin:round;stroke-linecap:round"
        d="M 27.92053178924012,15.744346291883858 L 27.92053178924012,12.443946291883833 L 27.120531789240122,12.443946291883833 M 27.120531782990124,15.744346291883858 L 27.92053178924012,15.744346291883858 "
  />
  <path id="face1-interior"
 style="fill:none;stroke:#FF0000;stroke-width:0.1;stroke-miterlimit:4;stroke-dasharray:none;stroke-linejoin:round;stroke-linecap:round"
        d="M 12.121131789240135,12.443946291883833 L 12.121131789240138,15.744346291883858 L 12.921131788906788,15.744346291883858 M 12.921131789240135,12.443946291883833 L 12.121131789240135,12.443946291883833 "
  />
  <path id="face2-interior"
 style="fill:none;stroke:#FF0000;stroke-width:0.1;stroke-miterlimit:4;stroke-dasharray:none;stroke-linejoin:round;stroke-linecap:round"
        d="M 27.92053178924012,39.54454629188385 L 27.92053178924012,36.24414629188385 L 27.120531789240122,36.24414629188385 M 27.120531789240122,39.54454629188385 L 27.92053178924012,39.54454629188385 "
  />
  <path id="face3-interior"
 style="fill:none;stroke:#FF0000;stroke-width:0.1;stroke-miterlimit:4;stroke-dasharray:none;stroke-linejoin:round;stroke-linecap:round"
        d="M 12.121131789240138,36.24414629188385 L 12.121131789240138,39.54454629188385 L 12.921131789240139,39.54454629188385 M 12.921131789240139,36.24414629188385 L 12.121131789240138,36.24414629188385 "
  />
  <path id="face4-interior"
 style="fill:none;stroke:#FF0000;stroke-width:0.1;stroke-miterlimit:4;stroke-dasharray:none;stroke-linejoin:round;stroke-linecap:round"
        d="M 31.100000000000012,42.80000000000004 M 31.100000000000012,10.000000000000028 M 10.000000000000007,10.0 M 10.0,42.80000000000004 M 12.921131789240135,12.443946291883833 M 27.120531789240122,12.443946291883833 M 27.92053178924012,12.443946291883833 M 27.92053178924012,15.744346291883858 M 27.120531782990124,15.744346291883858 M 12.921131788906788,15.744346291883858 M 12.121131789240138,15.744346291883858 M 12.121131789240135,12.443946291883833 M 13.67083178924014,18.99384629188384 M 27.67023178924013,18.99384629188384 M 27.67023178924013,32.99334629188385 M 13.670831789240147,32.99334629188385 M 12.921131789240139,36.24414629188385 M 27.120531789240122,36.24414629188385 M 27.92053178924012,36.24414629188385 M 27.92053178924012,39.54454629188385 M 27.120531789240122,39.54454629188385 M 12.921131789240139,39.54454629188385 M 12.121131789240138,39.54454629188385 M 12.121131789240138,36.24414629188385 "
  />
  <path id="face0-interior"
 style="fill:none;stroke:#00FF00;stroke-width:0.1;stroke-miterlimit:4;stroke-dasharray:none;stroke-linejoin:round;stroke-linecap:round"
        d="M 27.92053178924012,15.744346291883858 M 27.92053178924012,12.443946291883833 M 27.120531789240122,12.443946291883833 M 27.120531782990124,15.744346291883858 "
  />
  <path id="face1-interior"
 style="fill:none;stroke:#00FF00;stroke-width:0.1;stroke-miterlimit:4;stroke-dasharray:none;stroke-linejoin:round;stroke-linecap:round"
        d="M 12.121131789240135,12.443946291883833 M 12.121131789240138,15.744346291883858 M 12.921131788906788,15.744346291883858 M 12.921131789240135,12.443946291883833 "
  />
  <path id="face2-interior"
 style="fill:none;stroke:#00FF00;stroke-width:0.1;stroke-miterlimit:4;stroke-dasharray:none;stroke-linejoin:round;stroke-linecap:round"
        d="M 27.92053178924012,39.54454629188385 M 27.92053178924012,36.24414629188385 M 27.120531789240122,36.24414629188385 M 27.120531789240122,39.54454629188385 "
  />
  <path id="face3-interior"
 style="fill:none;stroke:#00FF00;stroke-width:0.1;stroke-miterlimit:4;stroke-dasharray:none;stroke-linejoin:round;stroke-linecap:round"
        d="M 12.121131789240138,36.24414629188385 M 12.121131789240138,39.54454629188385 M 12.921131789240139,39.54454629188385 M 12.921131789240139,36.24414629188385 "
  />
  <path id="face4-interior"
 style="fill:none;stroke:#00FF00;stroke-width:0.1;stroke-miterlimit:4;stroke-dasharray:none;stroke-linejoin:round;stroke-linecap:round"
        d="M 31.100000000000012,42.80000000000004 M 31.100000000000012,10.000000000000028 M 10.000000000000007,10.0 M 10.0,42.80000000000004 M 12.921131789240135,12.443946291883833 M 27.120531789240122,12.443946291883833 M 27.92053178924012,12.443946291883833 M 27.92053178924012,15.744346291883858 M 27.120531782990124,15.744346291883858 M 12.921131788906788,15.744346291883858 M 12.121131789240138,15.744346291883858 M 12.121131789240135,12.443946291883833 M 13.67083178924014,18.99384629188384 M 27.67023178924013,18.99384629188384 M 27.67023178924013,32.99334629188385 M 13.670831789240147,32.99334629188385 M 12.921131789240139,36.24414629188385 M 27.120531789240122,36.24414629188385 M 27.92053178924012,36.24414629188385 M 27.92053178924012,39.54454629188385 M 27.120531789240122,39.54454629188385 M 12.921131789240139,39.54454629188385 M 12.121131789240138,39.54454629188385 M 12.121131789240138,36.24414629188385 "
  />
</svg>
