<?xml version="1.0" standalone="no"?>
<!DOCTYPE svg PUBLIC "-//W3C//DTD SVG 1.1//EN" "http://www.w3.org/Graphics/SVG/1.1/DTD/svg11.dtd">
<svg width="125.25029340000006mm" height="315.75029340000003mm"
 viewBox="0 0 125.25029340000006 315.75029340000003"
 xmlns="http://www.w3.org/2000/svg" version="1.1"
 xmlns:xlink="http://www.w3.org/1999/xlink">
<desc>Output from Flights of Ideas SVG Sketchup Plugin</desc>

  <path id="face0-cut"
 style="fill:none;stroke:#0000FF;stroke-width:0.1;stroke-miterlimit:4;stroke-dasharray:none;stroke-linejoin:round;stroke-linecap:round"
        d="M 115.25029340000006,167.39999999999998 L 115.25029340000006,13.000000000000021 L 115.14807087886729,12.223542864692462 L 114.84836961135338,11.5 L 114.37161374355969,10.878679656440369 L 113.75029340000006,10.40192378864672 L 113.02675053530763,10.102222521132816 L 112.25029340000006,10.0 L 13.000000000000057,10.0 L 12.22354286469249,10.102222521132838 L 11.500000000000114,10.401923788646698 L 10.878679656440454,10.878679656440326 L 10.401923788646798,11.500000000000021 L 10.10222252113283,12.223542864692462 L 10.000000000000114,13.000000000000021 L 10.000000000000114,162.63799999999978 M 36.575493400000084,162.63799999999975 M 50.574893400000036,162.63799999999995 M 53.10009340000008,162.6379999999999 M 53.10009340000008,172.1629999999999 M 55.62559340000007,172.1629999999999 M 69.62489340000008,172.16300000000007 M 72.15039340000007,172.16299999999995 M 72.15009340000006,176.92499999999998 M 74.67559340000005,176.92499999999998 M 88.67489340000006,176.92499999999998 M 91.20039340000002,176.92499999999998 M 91.20039340000002,167.39999999999998 M 93.72559340000004,167.39999999999998 M 107.72629340000003,167.39999999999998 M 80.51613240845316,158.185582854123 L 80.47524340000007,157.875 L 80.51613240845316,157.56441714587692 L 80.63601291545874,157.275 L 80.82671526257619,157.02647186257616 L 81.07524340000006,156.83576951545865 L 81.36466054587703,156.71588900845308 L 81.67524340000006,156.67499999999998 L 81.98582625412308,156.7158890084531 L 82.27524340000005,156.83576951545868 L 82.5237715374239,157.02647186257616 L 82.71447388454138,157.275 L 82.83435439154692,157.56441714587692 L 82.87524340000004,157.875 L 82.83435439154692,158.18558285412306 L 82.71447388454138,158.47499999999997 L 82.52377153742393,158.72352813742384 L 82.27524340000005,158.9142304845413 L 81.98582625412308,159.03411099154687 L 81.67524340000006,159.075 L 81.36466054587703,159.03411099154684 L 81.07524340000006,158.91423048454135 L 80.82671526257619,158.7235281374238 L 80.63601291545874,158.47499999999997 L 80.51613240845316,158.185582854123 M 23.366127408453195,114.429082854123 L 23.325238400000046,114.11850000000004 L 23.366127408453195,113.80791714587696 L 23.486007915458742,113.51849999999999 L 23.676710262576194,113.26997186257617 L 23.92523840000004,113.0792695154587 L 24.214655545877037,112.95938900845312 L 24.525238400000035,112.9185 L 24.83582125412309,112.95938900845312 L 25.12523840000003,113.07926951545872 L 25.373766537423933,113.26997186257617 L 25.564468884541384,113.51850000000002 L 25.68434939154693,113.80791714587693 L 25.725238400000023,114.11850000000001 L 25.68434939154693,114.42908285412305 L 25.564468884541384,114.71849999999998 L 25.373766537423933,114.96702813742382 L 25.125238400000086,115.15773048454129 L 24.83582125412309,115.27761099154691 L 24.525238400000035,115.31849999999999 L 24.214655545877037,115.27761099154685 L 23.92523840000004,115.15773048454136 L 23.676710262576194,114.9670281374238 L 23.486007915458742,114.71849999999996 L 23.366127408453195,114.429082854123 M 80.51613240845316,41.50508285412307 L 80.47524340000007,41.194500000000005 L 80.51613240845316,40.883917145876985 L 80.6360129154587,40.594500000000025 L 80.82671526257622,40.345971862576164 L 81.07524340000003,40.15526951545873 L 81.364660545877,40.035389008453166 L 81.67524340000006,39.99450000000003 L 81.98582625412308,40.035389008453144 L 82.27524340000002,40.15526951545875 L 82.52377153742393,40.345971862576185 L 82.71447388454138,40.594500000000025 L 82.83435439154692,40.883917145876985 L 82.87524340000007,41.194500000000026 L 82.83435439154692,41.50508285412307 L 82.71447388454138,41.7945 L 82.5237715374239,42.043028137423846 L 82.27524340000008,42.233730484541326 L 81.98582625412308,42.35361099154691 L 81.67524340000008,42.39450000000002 L 81.36466054587703,42.35361099154691 L 81.07524340000009,42.233730484541326 L 80.82671526257619,42.04302813742387 L 80.63601291545874,41.7945 L 80.51613240845316,41.50508285412307 M 24.83582125412309,39.97211099154694 L 24.525238400000035,40.013000000000034 L 24.214655545877037,39.97211099154694 L 23.92523840000004,39.85223048454139 L 23.67671026257625,39.66152813742388 L 23.486007915458686,39.41300000000006 L 23.366127408453167,39.1235828541231 L 23.325238400000046,38.81300000000009 L 23.366127408453195,38.502417145877 L 23.486007915458742,38.213000000000065 L 23.676710262576194,37.9644718625762 L 23.92523840000007,37.77376951545871 L 24.214655545877008,37.65388900845318 L 24.525238400000035,37.61300000000004 L 24.83582125412309,37.653889008453156 L 25.12523840000003,37.77376951545876 L 25.373766537423933,37.964471862576175 L 25.564468884541327,38.213000000000065 L 25.68434939154693,38.502417145877 L 25.725238400000023,38.81300000000004 L 25.68434939154693,39.12358285412308 L 25.56446888454144,39.41300000000004 L 25.373766537423933,39.6615281374239 L 25.125238400000086,39.852230484541316 L 24.83582125412309,39.97211099154694 "
  />
  <path id="face1-cut"
 style="fill:none;stroke:#0000FF;stroke-width:0.1;stroke-miterlimit:4;stroke-dasharray:none;stroke-linejoin:round;stroke-linecap:round"
        d="M 10.000000000000114,162.63799999999978 L 10.0,302.7502934 L 10.10222252113283,303.52675053530754 L 10.40192378864674,304.2502934 L 10.87867965644034,304.8716137435596 L 11.500000000000057,305.34836961135335 L 12.22354286469249,305.6480708788672 L 13.000000000000057,305.7502934 L 112.25029340000009,305.75029340000003 L 113.02675053530763,305.6480708788672 L 113.75029340000006,305.34836961135335 L 114.37161374355972,304.8716137435597 L 114.84836961135338,304.25029340000003 L 115.14807087886726,303.5267505353076 L 115.25029340000006,302.7502934 L 115.25029340000006,167.39999999999998 M 107.72629340000003,167.39999999999998 M 93.72559340000004,167.39999999999998 M 91.20039340000002,167.39999999999998 M 91.20039340000002,176.92499999999998 M 88.67489340000006,176.92499999999998 M 74.67559340000005,176.92499999999998 M 72.15009340000006,176.92499999999998 M 72.15039340000007,172.16299999999995 M 69.62489340000008,172.16300000000007 M 55.62559340000007,172.1629999999999 M 53.10009340000008,172.1629999999999 M 53.10009340000008,162.6379999999999 M 50.574893400000036,162.63799999999995 M 36.575493400000084,162.63799999999975 M 82.83435439154695,274.245667145877 L 82.87524340000004,274.5562500000001 L 82.83435439154692,274.866832854123 L 82.71447388454138,275.15625 L 82.52377153742393,275.4047781374239 L 82.27524340000005,275.5954804845414 L 81.98582625412308,275.7153609915469 L 81.67524340000006,275.75625 L 81.36466054587703,275.71536099154685 L 81.07524340000006,275.5954804845414 L 80.82671526257622,275.4047781374239 L 80.63601291545874,275.15625 L 80.51613240845316,274.866832854123 L 80.47524340000007,274.55625000000003 L 80.51613240845316,274.245667145877 L 80.63601291545874,273.95625 L 80.82671526257619,273.70772186257614 L 81.07524340000006,273.51701951545874 L 81.364660545877,273.39713900845317 L 81.67524340000003,273.35625000000005 L 81.98582625412308,273.39713900845317 L 82.27524340000005,273.5170195154587 L 82.52377153742393,273.7077218625762 L 82.71447388454138,273.95625 L 82.83435439154695,274.245667145877 M 82.83435439154692,214.714467145877 L 82.87524340000004,215.02505000000002 L 82.83435439154692,215.33563285412305 L 82.71447388454138,215.62505000000004 L 82.52377153742393,215.87357813742386 L 82.27524340000005,216.06428048454137 L 81.98582625412308,216.1841609915469 L 81.67524340000008,216.22505000000007 L 81.36466054587703,216.1841609915469 L 81.07524340000006,216.06428048454137 L 80.82671526257619,215.87357813742386 L 80.63601291545874,215.62505000000004 L 80.51613240845316,215.33563285412305 L 80.47524340000007,215.02505000000002 L 80.51613240845316,214.714467145877 L 80.63601291545874,214.42505000000006 L 80.82671526257622,214.17652186257618 L 81.07524340000003,213.98581951545867 L 81.36466054587703,213.86593900845315 L 81.67524340000006,213.82505000000003 L 81.98582625412308,213.86593900845315 L 82.27524340000005,213.98581951545867 L 82.5237715374239,214.17652186257618 L 82.71447388454138,214.42505 L 82.83435439154692,214.714467145877 M 25.68434939154696,203.70276714587703 L 25.725238400000023,204.01335 L 25.68434939154693,204.32393285412303 L 25.564468884541384,204.61335000000003 L 25.373766537423933,204.8618781374239 L 25.12523840000003,205.05258048454135 L 24.83582125412309,205.17246099154687 L 24.525238400000035,205.21335 L 24.214655545877037,205.17246099154687 L 23.92523840000007,205.05258048454135 L 23.676710262576194,204.8618781374239 L 23.486007915458742,204.61335000000003 L 23.366127408453195,204.3239328541231 L 23.325238400000075,204.01335000000006 L 23.366127408453167,203.70276714587698 L 23.486007915458742,203.41334999999998 L 23.676710262576194,203.16482186257616 L 23.92523840000004,202.97411951545865 L 24.214655545877037,202.85423900845313 L 24.525238400000035,202.81335 L 24.83582125412309,202.8542390084532 L 25.125238400000086,202.9741195154587 L 25.373766537423933,203.1648218625761 L 25.564468884541384,203.41334999999998 L 25.68434939154696,203.70276714587703 M 25.68434939154693,276.627667145877 L 25.72523840000008,276.93825000000004 L 25.68434939154693,277.248832854123 L 25.56446888454144,277.53825000000006 L 25.373766537423876,277.7867781374239 L 25.125238400000086,277.97748048454133 L 24.83582125412309,278.0973609915469 L 24.525238400000035,278.13825 L 24.214655545877093,278.0973609915469 L 23.92523840000007,277.97748048454133 L 23.67671026257625,277.7867781374239 L 23.486007915458742,277.53825000000006 L 23.366127408453195,277.24883285412307 L 23.325238400000046,276.93825000000004 L 23.366127408453195,276.627667145877 L 23.486007915458742,276.33825 L 23.676710262576194,276.0897218625762 L 23.92523840000007,275.89901951545875 L 24.214655545877037,275.7791390084531 L 24.525238400000035,275.73825000000005 L 24.835821254123033,275.7791390084531 L 25.125238400000086,275.89901951545875 L 25.37376653742396,276.0897218625762 L 25.56446888454144,276.33825 L 25.68434939154693,276.627667145877 "
  />
  <path id="face0-interior"
 style="fill:none;stroke:#FF0000;stroke-width:0.1;stroke-miterlimit:4;stroke-dasharray:none;stroke-linejoin:round;stroke-linecap:round"
        d="M 115.25029340000006,167.39999999999998 M 115.25029340000006,13.000000000000021 M 115.14807087886729,12.223542864692462 M 114.84836961135338,11.5 M 114.37161374355969,10.878679656440369 M 113.75029340000006,10.40192378864672 M 113.02675053530763,10.102222521132816 M 112.25029340000006,10.0 M 13.000000000000057,10.0 M 12.22354286469249,10.102222521132838 M 11.500000000000114,10.401923788646698 M 10.878679656440454,10.878679656440326 M 10.401923788646798,11.500000000000021 M 10.10222252113283,12.223542864692462 M 10.000000000000114,13.000000000000021 M 10.000000000000114,162.63799999999978 L 36.575493400000084,162.63799999999975 L 50.574893400000036,162.63799999999995 L 53.10009340000008,162.6379999999999 L 53.10009340000008,172.1629999999999 L 55.62559340000007,172.1629999999999 L 69.62489340000008,172.16300000000007 L 72.15039340000007,172.16299999999995 L 72.15009340000006,176.92499999999998 L 74.67559340000005,176.92499999999998 L 88.67489340000006,176.92499999999998 L 91.20039340000002,176.92499999999998 L 91.20039340000002,167.39999999999998 L 93.72559340000004,167.39999999999998 L 107.72629340000003,167.39999999999998 L 115.25029340000006,167.39999999999998 M 80.51613240845316,158.185582854123 M 80.47524340000007,157.875 M 80.51613240845316,157.56441714587692 M 80.63601291545874,157.275 M 80.82671526257619,157.02647186257616 M 81.07524340000006,156.83576951545865 M 81.36466054587703,156.71588900845308 M 81.67524340000006,156.67499999999998 M 81.98582625412308,156.7158890084531 M 82.27524340000005,156.83576951545868 M 82.5237715374239,157.02647186257616 M 82.71447388454138,157.275 M 82.83435439154692,157.56441714587692 M 82.87524340000004,157.875 M 82.83435439154692,158.18558285412306 M 82.71447388454138,158.47499999999997 M 82.52377153742393,158.72352813742384 M 82.27524340000005,158.9142304845413 M 81.98582625412308,159.03411099154687 M 81.67524340000006,159.075 M 81.36466054587703,159.03411099154684 M 81.07524340000006,158.91423048454135 M 80.82671526257619,158.7235281374238 M 80.63601291545874,158.47499999999997 M 23.366127408453195,114.429082854123 M 23.325238400000046,114.11850000000004 M 23.366127408453195,113.80791714587696 M 23.486007915458742,113.51849999999999 M 23.676710262576194,113.26997186257617 M 23.92523840000004,113.0792695154587 M 24.214655545877037,112.95938900845312 M 24.525238400000035,112.9185 M 24.83582125412309,112.95938900845312 M 25.12523840000003,113.07926951545872 M 25.373766537423933,113.26997186257617 M 25.564468884541384,113.51850000000002 M 25.68434939154693,113.80791714587693 M 25.725238400000023,114.11850000000001 M 25.68434939154693,114.42908285412305 M 25.564468884541384,114.71849999999998 M 25.373766537423933,114.96702813742382 M 25.125238400000086,115.15773048454129 M 24.83582125412309,115.27761099154691 M 24.525238400000035,115.31849999999999 M 24.214655545877037,115.27761099154685 M 23.92523840000004,115.15773048454136 M 23.676710262576194,114.9670281374238 M 23.486007915458742,114.71849999999996 M 80.51613240845316,41.50508285412307 M 80.47524340000007,41.194500000000005 M 80.51613240845316,40.883917145876985 M 80.6360129154587,40.594500000000025 M 80.82671526257622,40.345971862576164 M 81.07524340000003,40.15526951545873 M 81.364660545877,40.035389008453166 M 81.67524340000006,39.99450000000003 M 81.98582625412308,40.035389008453144 M 82.27524340000002,40.15526951545875 M 82.52377153742393,40.345971862576185 M 82.71447388454138,40.594500000000025 M 82.83435439154692,40.883917145876985 M 82.87524340000007,41.194500000000026 M 82.83435439154692,41.50508285412307 M 82.71447388454138,41.7945 M 82.5237715374239,42.043028137423846 M 82.27524340000008,42.233730484541326 M 81.98582625412308,42.35361099154691 M 81.67524340000008,42.39450000000002 M 81.36466054587703,42.35361099154691 M 81.07524340000009,42.233730484541326 M 80.82671526257619,42.04302813742387 M 80.63601291545874,41.7945 M 24.83582125412309,39.97211099154694 M 24.525238400000035,40.013000000000034 M 24.214655545877037,39.97211099154694 M 23.92523840000004,39.85223048454139 M 23.67671026257625,39.66152813742388 M 23.486007915458686,39.41300000000006 M 23.366127408453167,39.1235828541231 M 23.325238400000046,38.81300000000009 M 23.366127408453195,38.502417145877 M 23.486007915458742,38.213000000000065 M 23.676710262576194,37.9644718625762 M 23.92523840000007,37.77376951545871 M 24.214655545877008,37.65388900845318 M 24.525238400000035,37.61300000000004 M 24.83582125412309,37.653889008453156 M 25.12523840000003,37.77376951545876 M 25.373766537423933,37.964471862576175 M 25.564468884541327,38.213000000000065 M 25.68434939154693,38.502417145877 M 25.725238400000023,38.81300000000004 M 25.68434939154693,39.12358285412308 M 25.56446888454144,39.41300000000004 M 25.373766537423933,39.6615281374239 M 25.125238400000086,39.852230484541316 "
  />
  <path id="face1-interior"
 style="fill:none;stroke:#FF0000;stroke-width:0.1;stroke-miterlimit:4;stroke-dasharray:none;stroke-linejoin:round;stroke-linecap:round"
        d="M 10.000000000000114,162.63799999999978 M 10.0,302.7502934 M 10.10222252113283,303.52675053530754 M 10.40192378864674,304.2502934 M 10.87867965644034,304.8716137435596 M 11.500000000000057,305.34836961135335 M 12.22354286469249,305.6480708788672 M 13.000000000000057,305.7502934 M 112.25029340000009,305.75029340000003 M 113.02675053530763,305.6480708788672 M 113.75029340000006,305.34836961135335 M 114.37161374355972,304.8716137435597 M 114.84836961135338,304.25029340000003 M 115.14807087886726,303.5267505353076 M 115.25029340000006,302.7502934 M 115.25029340000006,167.39999999999998 M 107.72629340000003,167.39999999999998 M 93.72559340000004,167.39999999999998 M 91.20039340000002,167.39999999999998 M 91.20039340000002,176.92499999999998 M 88.67489340000006,176.92499999999998 M 74.67559340000005,176.92499999999998 M 72.15009340000006,176.92499999999998 M 72.15039340000007,172.16299999999995 M 69.62489340000008,172.16300000000007 M 55.62559340000007,172.1629999999999 M 53.10009340000008,172.1629999999999 M 53.10009340000008,162.6379999999999 M 50.574893400000036,162.63799999999995 M 36.575493400000084,162.63799999999975 M 82.83435439154695,274.245667145877 M 82.87524340000004,274.5562500000001 M 82.83435439154692,274.866832854123 M 82.71447388454138,275.15625 M 82.52377153742393,275.4047781374239 M 82.27524340000005,275.5954804845414 M 81.98582625412308,275.7153609915469 M 81.67524340000006,275.75625 M 81.36466054587703,275.71536099154685 M 81.07524340000006,275.5954804845414 M 80.82671526257622,275.4047781374239 M 80.63601291545874,275.15625 M 80.51613240845316,274.866832854123 M 80.47524340000007,274.55625000000003 M 80.51613240845316,274.245667145877 M 80.63601291545874,273.95625 M 80.82671526257619,273.70772186257614 M 81.07524340000006,273.51701951545874 M 81.364660545877,273.39713900845317 M 81.67524340000003,273.35625000000005 M 81.98582625412308,273.39713900845317 M 82.27524340000005,273.5170195154587 M 82.52377153742393,273.7077218625762 M 82.71447388454138,273.95625 M 82.83435439154692,214.714467145877 M 82.87524340000004,215.02505000000002 M 82.83435439154692,215.33563285412305 M 82.71447388454138,215.62505000000004 M 82.52377153742393,215.87357813742386 M 82.27524340000005,216.06428048454137 M 81.98582625412308,216.1841609915469 M 81.67524340000008,216.22505000000007 M 81.36466054587703,216.1841609915469 M 81.07524340000006,216.06428048454137 M 80.82671526257619,215.87357813742386 M 80.63601291545874,215.62505000000004 M 80.51613240845316,215.33563285412305 M 80.47524340000007,215.02505000000002 M 80.51613240845316,214.714467145877 M 80.63601291545874,214.42505000000006 M 80.82671526257622,214.17652186257618 M 81.07524340000003,213.98581951545867 M 81.36466054587703,213.86593900845315 M 81.67524340000006,213.82505000000003 M 81.98582625412308,213.86593900845315 M 82.27524340000005,213.98581951545867 M 82.5237715374239,214.17652186257618 M 82.71447388454138,214.42505 M 25.68434939154696,203.70276714587703 M 25.725238400000023,204.01335 M 25.68434939154693,204.32393285412303 M 25.564468884541384,204.61335000000003 M 25.373766537423933,204.8618781374239 M 25.12523840000003,205.05258048454135 M 24.83582125412309,205.17246099154687 M 24.525238400000035,205.21335 M 24.214655545877037,205.17246099154687 M 23.92523840000007,205.05258048454135 M 23.676710262576194,204.8618781374239 M 23.486007915458742,204.61335000000003 M 23.366127408453195,204.3239328541231 M 23.325238400000075,204.01335000000006 M 23.366127408453167,203.70276714587698 M 23.486007915458742,203.41334999999998 M 23.676710262576194,203.16482186257616 M 23.92523840000004,202.97411951545865 M 24.214655545877037,202.85423900845313 M 24.525238400000035,202.81335 M 24.83582125412309,202.8542390084532 M 25.125238400000086,202.9741195154587 M 25.373766537423933,203.1648218625761 M 25.564468884541384,203.41334999999998 M 25.68434939154693,276.627667145877 M 25.72523840000008,276.93825000000004 M 25.68434939154693,277.248832854123 M 25.56446888454144,277.53825000000006 M 25.373766537423876,277.7867781374239 M 25.125238400000086,277.97748048454133 M 24.83582125412309,278.0973609915469 M 24.525238400000035,278.13825 M 24.214655545877093,278.0973609915469 M 23.92523840000007,277.97748048454133 M 23.67671026257625,277.7867781374239 M 23.486007915458742,277.53825000000006 M 23.366127408453195,277.24883285412307 M 23.325238400000046,276.93825000000004 M 23.366127408453195,276.627667145877 M 23.486007915458742,276.33825 M 23.676710262576194,276.0897218625762 M 23.92523840000007,275.89901951545875 M 24.214655545877037,275.7791390084531 M 24.525238400000035,275.73825000000005 M 24.835821254123033,275.7791390084531 M 25.125238400000086,275.89901951545875 M 25.37376653742396,276.0897218625762 M 25.56446888454144,276.33825 "
  />
  <path id="face0-interior"
 style="fill:none;stroke:#00FF00;stroke-width:0.1;stroke-miterlimit:4;stroke-dasharray:none;stroke-linejoin:round;stroke-linecap:round"
        d="M 115.25029340000006,167.39999999999998 M 115.25029340000006,13.000000000000021 M 115.14807087886729,12.223542864692462 M 114.84836961135338,11.5 M 114.37161374355969,10.878679656440369 M 113.75029340000006,10.40192378864672 M 113.02675053530763,10.102222521132816 M 112.25029340000006,10.0 M 13.000000000000057,10.0 M 12.22354286469249,10.102222521132838 M 11.500000000000114,10.401923788646698 M 10.878679656440454,10.878679656440326 M 10.401923788646798,11.500000000000021 M 10.10222252113283,12.223542864692462 M 10.000000000000114,13.000000000000021 M 10.000000000000114,162.63799999999978 M 36.575493400000084,162.63799999999975 M 50.574893400000036,162.63799999999995 M 53.10009340000008,162.6379999999999 M 53.10009340000008,172.1629999999999 M 55.62559340000007,172.1629999999999 M 69.62489340000008,172.16300000000007 M 72.15039340000007,172.16299999999995 M 72.15009340000006,176.92499999999998 M 74.67559340000005,176.92499999999998 M 88.67489340000006,176.92499999999998 M 91.20039340000002,176.92499999999998 M 91.20039340000002,167.39999999999998 M 93.72559340000004,167.39999999999998 M 107.72629340000003,167.39999999999998 M 80.51613240845316,158.185582854123 M 80.47524340000007,157.875 M 80.51613240845316,157.56441714587692 M 80.63601291545874,157.275 M 80.82671526257619,157.02647186257616 M 81.07524340000006,156.83576951545865 M 81.36466054587703,156.71588900845308 M 81.67524340000006,156.67499999999998 M 81.98582625412308,156.7158890084531 M 82.27524340000005,156.83576951545868 M 82.5237715374239,157.02647186257616 M 82.71447388454138,157.275 M 82.83435439154692,157.56441714587692 M 82.87524340000004,157.875 M 82.83435439154692,158.18558285412306 M 82.71447388454138,158.47499999999997 M 82.52377153742393,158.72352813742384 M 82.27524340000005,158.9142304845413 M 81.98582625412308,159.03411099154687 M 81.67524340000006,159.075 M 81.36466054587703,159.03411099154684 M 81.07524340000006,158.91423048454135 M 80.82671526257619,158.7235281374238 M 80.63601291545874,158.47499999999997 M 23.366127408453195,114.429082854123 M 23.325238400000046,114.11850000000004 M 23.366127408453195,113.80791714587696 M 23.486007915458742,113.51849999999999 M 23.676710262576194,113.26997186257617 M 23.92523840000004,113.0792695154587 M 24.214655545877037,112.95938900845312 M 24.525238400000035,112.9185 M 24.83582125412309,112.95938900845312 M 25.12523840000003,113.07926951545872 M 25.373766537423933,113.26997186257617 M 25.564468884541384,113.51850000000002 M 25.68434939154693,113.80791714587693 M 25.725238400000023,114.11850000000001 M 25.68434939154693,114.42908285412305 M 25.564468884541384,114.71849999999998 M 25.373766537423933,114.96702813742382 M 25.125238400000086,115.15773048454129 M 24.83582125412309,115.27761099154691 M 24.525238400000035,115.31849999999999 M 24.214655545877037,115.27761099154685 M 23.92523840000004,115.15773048454136 M 23.676710262576194,114.9670281374238 M 23.486007915458742,114.71849999999996 M 80.51613240845316,41.50508285412307 M 80.47524340000007,41.194500000000005 M 80.51613240845316,40.883917145876985 M 80.6360129154587,40.594500000000025 M 80.82671526257622,40.345971862576164 M 81.07524340000003,40.15526951545873 M 81.364660545877,40.035389008453166 M 81.67524340000006,39.99450000000003 M 81.98582625412308,40.035389008453144 M 82.27524340000002,40.15526951545875 M 82.52377153742393,40.345971862576185 M 82.71447388454138,40.594500000000025 M 82.83435439154692,40.883917145876985 M 82.87524340000007,41.194500000000026 M 82.83435439154692,41.50508285412307 M 82.71447388454138,41.7945 M 82.5237715374239,42.043028137423846 M 82.27524340000008,42.233730484541326 M 81.98582625412308,42.35361099154691 M 81.67524340000008,42.39450000000002 M 81.36466054587703,42.35361099154691 M 81.07524340000009,42.233730484541326 M 80.82671526257619,42.04302813742387 M 80.63601291545874,41.7945 M 24.83582125412309,39.97211099154694 M 24.525238400000035,40.013000000000034 M 24.214655545877037,39.97211099154694 M 23.92523840000004,39.85223048454139 M 23.67671026257625,39.66152813742388 M 23.486007915458686,39.41300000000006 M 23.366127408453167,39.1235828541231 M 23.325238400000046,38.81300000000009 M 23.366127408453195,38.502417145877 M 23.486007915458742,38.213000000000065 M 23.676710262576194,37.9644718625762 M 23.92523840000007,37.77376951545871 M 24.214655545877008,37.65388900845318 M 24.525238400000035,37.61300000000004 M 24.83582125412309,37.653889008453156 M 25.12523840000003,37.77376951545876 M 25.373766537423933,37.964471862576175 M 25.564468884541327,38.213000000000065 M 25.68434939154693,38.502417145877 M 25.725238400000023,38.81300000000004 M 25.68434939154693,39.12358285412308 M 25.56446888454144,39.41300000000004 M 25.373766537423933,39.6615281374239 M 25.125238400000086,39.852230484541316 "
  />
  <path id="face1-interior"
 style="fill:none;stroke:#00FF00;stroke-width:0.1;stroke-miterlimit:4;stroke-dasharray:none;stroke-linejoin:round;stroke-linecap:round"
        d="M 10.000000000000114,162.63799999999978 M 10.0,302.7502934 M 10.10222252113283,303.52675053530754 M 10.40192378864674,304.2502934 M 10.87867965644034,304.8716137435596 M 11.500000000000057,305.34836961135335 M 12.22354286469249,305.6480708788672 M 13.000000000000057,305.7502934 M 112.25029340000009,305.75029340000003 M 113.02675053530763,305.6480708788672 M 113.75029340000006,305.34836961135335 M 114.37161374355972,304.8716137435597 M 114.84836961135338,304.25029340000003 M 115.14807087886726,303.5267505353076 M 115.25029340000006,302.7502934 M 115.25029340000006,167.39999999999998 M 107.72629340000003,167.39999999999998 M 93.72559340000004,167.39999999999998 M 91.20039340000002,167.39999999999998 M 91.20039340000002,176.92499999999998 M 88.67489340000006,176.92499999999998 M 74.67559340000005,176.92499999999998 M 72.15009340000006,176.92499999999998 M 72.15039340000007,172.16299999999995 M 69.62489340000008,172.16300000000007 M 55.62559340000007,172.1629999999999 M 53.10009340000008,172.1629999999999 M 53.10009340000008,162.6379999999999 M 50.574893400000036,162.63799999999995 M 36.575493400000084,162.63799999999975 M 82.83435439154695,274.245667145877 M 82.87524340000004,274.5562500000001 M 82.83435439154692,274.866832854123 M 82.71447388454138,275.15625 M 82.52377153742393,275.4047781374239 M 82.27524340000005,275.5954804845414 M 81.98582625412308,275.7153609915469 M 81.67524340000006,275.75625 M 81.36466054587703,275.71536099154685 M 81.07524340000006,275.5954804845414 M 80.82671526257622,275.4047781374239 M 80.63601291545874,275.15625 M 80.51613240845316,274.866832854123 M 80.47524340000007,274.55625000000003 M 80.51613240845316,274.245667145877 M 80.63601291545874,273.95625 M 80.82671526257619,273.70772186257614 M 81.07524340000006,273.51701951545874 M 81.364660545877,273.39713900845317 M 81.67524340000003,273.35625000000005 M 81.98582625412308,273.39713900845317 M 82.27524340000005,273.5170195154587 M 82.52377153742393,273.7077218625762 M 82.71447388454138,273.95625 M 82.83435439154692,214.714467145877 M 82.87524340000004,215.02505000000002 M 82.83435439154692,215.33563285412305 M 82.71447388454138,215.62505000000004 M 82.52377153742393,215.87357813742386 M 82.27524340000005,216.06428048454137 M 81.98582625412308,216.1841609915469 M 81.67524340000008,216.22505000000007 M 81.36466054587703,216.1841609915469 M 81.07524340000006,216.06428048454137 M 80.82671526257619,215.87357813742386 M 80.63601291545874,215.62505000000004 M 80.51613240845316,215.33563285412305 M 80.47524340000007,215.02505000000002 M 80.51613240845316,214.714467145877 M 80.63601291545874,214.42505000000006 M 80.82671526257622,214.17652186257618 M 81.07524340000003,213.98581951545867 M 81.36466054587703,213.86593900845315 M 81.67524340000006,213.82505000000003 M 81.98582625412308,213.86593900845315 M 82.27524340000005,213.98581951545867 M 82.5237715374239,214.17652186257618 M 82.71447388454138,214.42505 M 25.68434939154696,203.70276714587703 M 25.725238400000023,204.01335 M 25.68434939154693,204.32393285412303 M 25.564468884541384,204.61335000000003 M 25.373766537423933,204.8618781374239 M 25.12523840000003,205.05258048454135 M 24.83582125412309,205.17246099154687 M 24.525238400000035,205.21335 M 24.214655545877037,205.17246099154687 M 23.92523840000007,205.05258048454135 M 23.676710262576194,204.8618781374239 M 23.486007915458742,204.61335000000003 M 23.366127408453195,204.3239328541231 M 23.325238400000075,204.01335000000006 M 23.366127408453167,203.70276714587698 M 23.486007915458742,203.41334999999998 M 23.676710262576194,203.16482186257616 M 23.92523840000004,202.97411951545865 M 24.214655545877037,202.85423900845313 M 24.525238400000035,202.81335 M 24.83582125412309,202.8542390084532 M 25.125238400000086,202.9741195154587 M 25.373766537423933,203.1648218625761 M 25.564468884541384,203.41334999999998 M 25.68434939154693,276.627667145877 M 25.72523840000008,276.93825000000004 M 25.68434939154693,277.248832854123 M 25.56446888454144,277.53825000000006 M 25.373766537423876,277.7867781374239 M 25.125238400000086,277.97748048454133 M 24.83582125412309,278.0973609915469 M 24.525238400000035,278.13825 M 24.214655545877093,278.0973609915469 M 23.92523840000007,277.97748048454133 M 23.67671026257625,277.7867781374239 M 23.486007915458742,277.53825000000006 M 23.366127408453195,277.24883285412307 M 23.325238400000046,276.93825000000004 M 23.366127408453195,276.627667145877 M 23.486007915458742,276.33825 M 23.676710262576194,276.0897218625762 M 23.92523840000007,275.89901951545875 M 24.214655545877037,275.7791390084531 M 24.525238400000035,275.73825000000005 M 24.835821254123033,275.7791390084531 M 25.125238400000086,275.89901951545875 M 25.37376653742396,276.0897218625762 M 25.56446888454144,276.33825 "
  />
</svg>
