<?xml version="1.0" standalone="no"?>
<!DOCTYPE svg PUBLIC "-//W3C//DTD SVG 1.1//EN" "http://www.w3.org/Graphics/SVG/1.1/DTD/svg11.dtd">
<svg width="125.2502934mm" height="340.03729339999984mm"
 viewBox="0 0 125.2502934 340.03729339999984"
 xmlns="http://www.w3.org/2000/svg" version="1.1"
 xmlns:xlink="http://www.w3.org/1999/xlink">
<desc>Output from Flights of Ideas SVG Sketchup Plugin</desc>

  <path id="face0-cut"
 style="fill:none;stroke:#0000FF;stroke-width:0.1;stroke-miterlimit:4;stroke-dasharray:none;stroke-linejoin:round;stroke-linecap:round"
        d="M 115.2502934,150.1122934 L 115.2502934,14.762 L 91.20039340000002,14.762 L 91.20039340000002,24.287000000000006 L 72.15009340000003,24.287000000000006 L 72.15039340000007,19.525000000000006 L 53.10009340000005,19.524999999999977 L 53.10009339999999,10.0 L 10.0,10.000000000000028 L 10.0,150.11229340000003 L 10.102222521132859,150.88875053530887 L 10.401923788646712,151.61229340000008 L 10.878679656440397,152.23361374355966 L 11.500000000000028,152.71036961135297 L 12.223542864692462,153.01007087886723 L 13.000000000000057,153.11229339999983 L 112.2502934,153.1122934 L 113.02675053530757,153.01007087886723 L 113.7502934,152.71036961135331 L 114.37161374355966,152.23361374355966 L 114.84836961135332,151.6122934 L 115.14807087886723,150.88875053530757 L 115.2502934,150.1122934 M 93.7203543262651,17.261994510415263 L 110.2502934,17.261994510415263 L 110.25029339999995,148.1122934 L 15.000000000000057,148.11229339999983 L 15.0,12.500000000000028 L 50.60009339999999,12.500000000000028 L 50.60009340000002,22.025000000000006 L 69.65023590314999,22.025000000000006 L 69.65023590314999,26.787000000000006 L 93.70039340000002,26.787000000000006 L 93.71511525253013,19.761989020830526 L 93.71773478939761,18.511991765622895 L 93.7203543262651,17.261994510415263 "
  />
  <path id="face1-cut"
 style="fill:none;stroke:#0000FF;stroke-width:0.1;stroke-miterlimit:4;stroke-dasharray:none;stroke-linejoin:round;stroke-linecap:round"
        d="M 10.0,315.7502933999998 L 53.10009340000002,315.7502933999998 L 53.10009340000002,325.2752933999998 L 72.15039340000001,325.27529339999984 L 72.15009340000003,330.0372933999998 L 91.20039339999997,330.03729339999984 L 91.20039339999997,320.5122934 L 115.25029339999998,320.51229340000003 L 115.25029339999998,166.11229340000006 L 115.1480708788672,165.3358362646925 L 114.84836961135329,164.61229340000006 L 114.37161374355964,163.9909730564404 L 113.75029339999998,163.51421718864674 L 113.02675053530754,163.2145159211329 L 112.25029339999998,163.11229340000006 L 13.000000000000028,163.1122934 L 12.223542864692433,163.2145159211329 L 11.5,163.51421718864674 L 10.878679656440369,163.9909730564404 L 10.401923788646656,164.61229340000006 L 10.10222252113283,165.3358362646925 L 10.0,166.1122934000001 L 10.0,315.7502933999998 M 55.60009340000002,313.2502933999999 L 15.0,313.2502933999998 L 15.000000000000028,168.11229340000006 L 110.25029339999995,168.11229340000006 L 110.25029339999995,318.01229339999986 L 88.7003934,318.0122934 L 88.7003934,327.53729339999984 L 74.65039340000004,327.5372933999998 L 74.65039340000004,322.7752933999999 L 55.60009340000002,322.77529339999984 L 55.60009340000002,313.2502933999999 "
  />
  <path id="face0-interior"
 style="fill:none;stroke:#FF0000;stroke-width:0.1;stroke-miterlimit:4;stroke-dasharray:none;stroke-linejoin:round;stroke-linecap:round"
        d="M 115.2502934,150.1122934 M 115.2502934,14.762 M 91.20039340000002,14.762 M 91.20039340000002,24.287000000000006 M 72.15009340000003,24.287000000000006 M 72.15039340000007,19.525000000000006 M 53.10009340000005,19.524999999999977 M 53.10009339999999,10.0 M 10.0,10.000000000000028 M 10.0,150.11229340000003 M 10.102222521132859,150.88875053530887 M 10.401923788646712,151.61229340000008 M 10.878679656440397,152.23361374355966 M 11.500000000000028,152.71036961135297 M 12.223542864692462,153.01007087886723 M 13.000000000000057,153.11229339999983 M 112.2502934,153.1122934 M 113.02675053530757,153.01007087886723 M 113.7502934,152.71036961135331 M 114.37161374355966,152.23361374355966 M 114.84836961135332,151.6122934 M 115.14807087886723,150.88875053530757 M 93.7203543262651,17.261994510415263 M 110.2502934,17.261994510415263 M 110.25029339999995,148.1122934 M 15.000000000000057,148.11229339999983 M 15.0,12.500000000000028 M 50.60009339999999,12.500000000000028 M 50.60009340000002,22.025000000000006 M 69.65023590314999,22.025000000000006 M 69.65023590314999,26.787000000000006 M 93.70039340000002,26.787000000000006 M 93.71511525253013,19.761989020830526 M 93.71773478939761,18.511991765622895 "
  />
  <path id="face1-interior"
 style="fill:none;stroke:#FF0000;stroke-width:0.1;stroke-miterlimit:4;stroke-dasharray:none;stroke-linejoin:round;stroke-linecap:round"
        d="M 10.0,315.7502933999998 M 53.10009340000002,315.7502933999998 M 53.10009340000002,325.2752933999998 M 72.15039340000001,325.27529339999984 M 72.15009340000003,330.0372933999998 M 91.20039339999997,330.03729339999984 M 91.20039339999997,320.5122934 M 115.25029339999998,320.51229340000003 M 115.25029339999998,166.11229340000006 M 115.1480708788672,165.3358362646925 M 114.84836961135329,164.61229340000006 M 114.37161374355964,163.9909730564404 M 113.75029339999998,163.51421718864674 M 113.02675053530754,163.2145159211329 M 112.25029339999998,163.11229340000006 M 13.000000000000028,163.1122934 M 12.223542864692433,163.2145159211329 M 11.5,163.51421718864674 M 10.878679656440369,163.9909730564404 M 10.401923788646656,164.61229340000006 M 10.10222252113283,165.3358362646925 M 10.0,166.1122934000001 M 55.60009340000002,313.2502933999999 M 15.0,313.2502933999998 M 15.000000000000028,168.11229340000006 M 110.25029339999995,168.11229340000006 M 110.25029339999995,318.01229339999986 M 88.7003934,318.0122934 M 88.7003934,327.53729339999984 M 74.65039340000004,327.5372933999998 M 74.65039340000004,322.7752933999999 M 55.60009340000002,322.77529339999984 "
  />
  <path id="face0-interior"
 style="fill:none;stroke:#00FF00;stroke-width:0.1;stroke-miterlimit:4;stroke-dasharray:none;stroke-linejoin:round;stroke-linecap:round"
        d="M 115.2502934,150.1122934 M 115.2502934,14.762 M 91.20039340000002,14.762 M 91.20039340000002,24.287000000000006 M 72.15009340000003,24.287000000000006 M 72.15039340000007,19.525000000000006 M 53.10009340000005,19.524999999999977 M 53.10009339999999,10.0 M 10.0,10.000000000000028 M 10.0,150.11229340000003 M 10.102222521132859,150.88875053530887 M 10.401923788646712,151.61229340000008 M 10.878679656440397,152.23361374355966 M 11.500000000000028,152.71036961135297 M 12.223542864692462,153.01007087886723 M 13.000000000000057,153.11229339999983 M 112.2502934,153.1122934 M 113.02675053530757,153.01007087886723 M 113.7502934,152.71036961135331 M 114.37161374355966,152.23361374355966 M 114.84836961135332,151.6122934 M 115.14807087886723,150.88875053530757 M 93.7203543262651,17.261994510415263 M 110.2502934,17.261994510415263 M 110.25029339999995,148.1122934 M 15.000000000000057,148.11229339999983 M 15.0,12.500000000000028 M 50.60009339999999,12.500000000000028 M 50.60009340000002,22.025000000000006 M 69.65023590314999,22.025000000000006 M 69.65023590314999,26.787000000000006 M 93.70039340000002,26.787000000000006 M 93.71511525253013,19.761989020830526 M 93.71773478939761,18.511991765622895 "
  />
  <path id="face1-interior"
 style="fill:none;stroke:#00FF00;stroke-width:0.1;stroke-miterlimit:4;stroke-dasharray:none;stroke-linejoin:round;stroke-linecap:round"
        d="M 10.0,315.7502933999998 M 53.10009340000002,315.7502933999998 M 53.10009340000002,325.2752933999998 M 72.15039340000001,325.27529339999984 M 72.15009340000003,330.0372933999998 M 91.20039339999997,330.03729339999984 M 91.20039339999997,320.5122934 M 115.25029339999998,320.51229340000003 M 115.25029339999998,166.11229340000006 M 115.1480708788672,165.3358362646925 M 114.84836961135329,164.61229340000006 M 114.37161374355964,163.9909730564404 M 113.75029339999998,163.51421718864674 M 113.02675053530754,163.2145159211329 M 112.25029339999998,163.11229340000006 M 13.000000000000028,163.1122934 M 12.223542864692433,163.2145159211329 M 11.5,163.51421718864674 M 10.878679656440369,163.9909730564404 M 10.401923788646656,164.61229340000006 M 10.10222252113283,165.3358362646925 M 10.0,166.1122934000001 M 55.60009340000002,313.2502933999999 M 15.0,313.2502933999998 M 15.000000000000028,168.11229340000006 M 110.25029339999995,168.11229340000006 M 110.25029339999995,318.01229339999986 M 88.7003934,318.0122934 M 88.7003934,327.53729339999984 M 74.65039340000004,327.5372933999998 M 74.65039340000004,322.7752933999999 M 55.60009340000002,322.77529339999984 "
  />
</svg>
