<?xml version="1.0" standalone="no"?>
<!DOCTYPE svg PUBLIC "-//W3C//DTD SVG 1.1//EN" "http://www.w3.org/Graphics/SVG/1.1/DTD/svg11.dtd">
<svg width="115.25029339999993mm" height="39.28699999999999mm"
 viewBox="0 0 115.25029339999993 39.28699999999999"
 xmlns="http://www.w3.org/2000/svg" version="1.1"
 xmlns:xlink="http://www.w3.org/1999/xlink">
<desc>Output from Flights of Ideas SVG Sketchup Plugin</desc>

  <path id="face0-cut"
 style="fill:none;stroke:#0000FF;stroke-width:0.1;stroke-miterlimit:4;stroke-dasharray:none;stroke-linejoin:round;stroke-linecap:round"
        d="M 50.60009339999998,10.0 L 10.0,10.0 L 10.0,12.500000000000014 M 31.575493400000013,12.500000000000007 M 45.57489339999999,12.499999999999993 M 48.100093400000006,12.499999999999993 M 48.100093400000006,22.025 M 50.6255934,22.025 M 64.62489339999998,22.024999999999984 M 67.1503934,22.024999999999984 M 67.15009339999999,26.787 M 69.67559339999998,26.786999999999985 M 83.67489339999996,26.787 M 86.20039339999998,26.786999999999985 M 86.20039339999998,17.262000000000008 M 88.72559339999997,17.261999999999986 M 102.72629339999993,17.262 M 105.25029339999993,17.26200000000002 L 105.25029339999993,14.76200000000005 L 83.70039340000001,14.76199999999998 L 83.70039339999998,24.287 L 69.6503934,24.287 L 69.6503934,19.52499999999999 L 50.60009339999998,19.525000000000006 L 50.60009339999998,10.0 "
  />
  <path id="face1-cut"
 style="fill:none;stroke:#0000FF;stroke-width:0.1;stroke-miterlimit:4;stroke-dasharray:none;stroke-linejoin:round;stroke-linecap:round"
        d="M 31.575493400000013,12.500000000000007 M 10.0,12.500000000000014 L 10.0,15.000000000000014 L 45.600093400000006,14.999999999999986 L 45.600093400000006,24.52499999999999 L 64.65023590314995,24.52499999999999 L 64.65023590314995,27.02499999999999 L 64.65023590314995,29.286999999999992 L 88.70039339999998,29.286999999999978 L 88.71511525253008,22.261989020830512 L 88.71773478939757,21.011991765622874 L 88.72035432626505,19.761994510415242 L 105.25029339999993,19.761994510415242 L 105.25029339999993,17.26200000000002 M 102.72629339999993,17.262 M 88.72559339999997,17.261999999999986 M 86.20039339999998,17.262000000000008 M 86.20039339999998,26.786999999999985 M 83.67489339999996,26.787 M 69.67559339999998,26.786999999999985 M 67.15009339999999,26.787 M 67.1503934,22.024999999999984 M 64.62489339999998,22.024999999999984 M 50.6255934,22.025 M 48.100093400000006,22.025 M 48.100093400000006,12.499999999999993 M 45.57489339999999,12.499999999999993 "
  />
  <path id="face0-interior"
 style="fill:none;stroke:#FF0000;stroke-width:0.1;stroke-miterlimit:4;stroke-dasharray:none;stroke-linejoin:round;stroke-linecap:round"
        d="M 50.60009339999998,10.0 M 10.0,10.0 M 10.0,12.500000000000014 L 31.575493400000013,12.500000000000007 L 45.57489339999999,12.499999999999993 L 48.100093400000006,12.499999999999993 L 48.100093400000006,22.025 L 50.6255934,22.025 L 64.62489339999998,22.024999999999984 L 67.1503934,22.024999999999984 L 67.15009339999999,26.787 L 69.67559339999998,26.786999999999985 L 83.67489339999996,26.787 L 86.20039339999998,26.786999999999985 L 86.20039339999998,17.262000000000008 L 88.72559339999997,17.261999999999986 L 102.72629339999993,17.262 L 105.25029339999993,17.26200000000002 M 105.25029339999993,14.76200000000005 M 83.70039340000001,14.76199999999998 M 83.70039339999998,24.287 M 69.6503934,24.287 M 69.6503934,19.52499999999999 M 50.60009339999998,19.525000000000006 "
  />
  <path id="face1-interior"
 style="fill:none;stroke:#FF0000;stroke-width:0.1;stroke-miterlimit:4;stroke-dasharray:none;stroke-linejoin:round;stroke-linecap:round"
        d="M 31.575493400000013,12.500000000000007 M 10.0,12.500000000000014 M 10.0,15.000000000000014 M 45.600093400000006,14.999999999999986 M 45.600093400000006,24.52499999999999 M 64.65023590314995,24.52499999999999 M 64.65023590314995,27.02499999999999 M 64.65023590314995,29.286999999999992 M 88.70039339999998,29.286999999999978 M 88.71511525253008,22.261989020830512 M 88.71773478939757,21.011991765622874 M 88.72035432626505,19.761994510415242 M 105.25029339999993,19.761994510415242 M 105.25029339999993,17.26200000000002 M 102.72629339999993,17.262 M 88.72559339999997,17.261999999999986 M 86.20039339999998,17.262000000000008 M 86.20039339999998,26.786999999999985 M 83.67489339999996,26.787 M 69.67559339999998,26.786999999999985 M 67.15009339999999,26.787 M 67.1503934,22.024999999999984 M 64.62489339999998,22.024999999999984 M 50.6255934,22.025 M 48.100093400000006,22.025 M 48.100093400000006,12.499999999999993 M 45.57489339999999,12.499999999999993 "
  />
  <path id="face0-interior"
 style="fill:none;stroke:#00FF00;stroke-width:0.1;stroke-miterlimit:4;stroke-dasharray:none;stroke-linejoin:round;stroke-linecap:round"
        d="M 50.60009339999998,10.0 M 10.0,10.0 M 10.0,12.500000000000014 M 31.575493400000013,12.500000000000007 M 45.57489339999999,12.499999999999993 M 48.100093400000006,12.499999999999993 M 48.100093400000006,22.025 M 50.6255934,22.025 M 64.62489339999998,22.024999999999984 M 67.1503934,22.024999999999984 M 67.15009339999999,26.787 M 69.67559339999998,26.786999999999985 M 83.67489339999996,26.787 M 86.20039339999998,26.786999999999985 M 86.20039339999998,17.262000000000008 M 88.72559339999997,17.261999999999986 M 102.72629339999993,17.262 M 105.25029339999993,17.26200000000002 M 105.25029339999993,14.76200000000005 M 83.70039340000001,14.76199999999998 M 83.70039339999998,24.287 M 69.6503934,24.287 M 69.6503934,19.52499999999999 M 50.60009339999998,19.525000000000006 "
  />
  <path id="face1-interior"
 style="fill:none;stroke:#00FF00;stroke-width:0.1;stroke-miterlimit:4;stroke-dasharray:none;stroke-linejoin:round;stroke-linecap:round"
        d="M 31.575493400000013,12.500000000000007 M 10.0,12.500000000000014 M 10.0,15.000000000000014 M 45.600093400000006,14.999999999999986 M 45.600093400000006,24.52499999999999 M 64.65023590314995,24.52499999999999 M 64.65023590314995,27.02499999999999 M 64.65023590314995,29.286999999999992 M 88.70039339999998,29.286999999999978 M 88.71511525253008,22.261989020830512 M 88.71773478939757,21.011991765622874 M 88.72035432626505,19.761994510415242 M 105.25029339999993,19.761994510415242 M 105.25029339999993,17.26200000000002 M 102.72629339999993,17.262 M 88.72559339999997,17.261999999999986 M 86.20039339999998,17.262000000000008 M 86.20039339999998,26.786999999999985 M 83.67489339999996,26.787 M 69.67559339999998,26.786999999999985 M 67.15009339999999,26.787 M 67.1503934,22.024999999999984 M 64.62489339999998,22.024999999999984 M 50.6255934,22.025 M 48.100093400000006,22.025 M 48.100093400000006,12.499999999999993 M 45.57489339999999,12.499999999999993 "
  />
</svg>
