<?xml version="1.0" standalone="no"?>
<!DOCTYPE svg PUBLIC "-//W3C//DTD SVG 1.1//EN" "http://www.w3.org/Graphics/SVG/1.1/DTD/svg11.dtd">
<svg width="115.25029339999998mm" height="39.287000000000035mm"
 viewBox="0 0 115.25029339999998 39.287000000000035"
 xmlns="http://www.w3.org/2000/svg" version="1.1"
 xmlns:xlink="http://www.w3.org/1999/xlink">
<desc>Output from Flights of Ideas SVG Sketchup Plugin</desc>

  <path id="face0-cut"
 style="fill:none;stroke:#0000FF;stroke-width:0.1;stroke-miterlimit:4;stroke-dasharray:none;stroke-linejoin:round;stroke-linecap:round"
        d="M 10.0,10.0 L 10.0,12.30000000000004 M 48.30009340000001,12.299999999999926 M 48.30009340000001,21.82499999999999 M 67.35039340000003,21.82499999999999 M 67.35009340000002,26.587000000000046 M 86.00039340000001,26.58699999999996 M 86.00039340000001,17.062000000000097 M 105.25029339999998,17.061999999999813 L 105.25029339999998,14.761999999999887 L 83.70039340000005,14.761999999999887 L 83.70039340000005,24.286999999999978 L 69.65039340000004,24.286999999999978 L 69.65039340000004,19.525000000000006 L 50.60009340000002,19.525000000000006 L 50.60009340000002,10.0 L 10.0,10.0 "
  />
  <path id="face1-cut"
 style="fill:none;stroke:#0000FF;stroke-width:0.1;stroke-miterlimit:4;stroke-dasharray:none;stroke-linejoin:round;stroke-linecap:round"
        d="M 86.20039340000002,26.787000000000006 M 86.20039340000002,17.261999999999972 M 105.25029339999998,17.261999999999915 L 105.25029339999998,17.061999999999813 M 86.00039340000001,17.062000000000097 M 86.00039340000001,26.58699999999996 M 67.35009340000002,26.587000000000046 M 67.35039340000003,21.82499999999999 M 48.30009340000001,21.82499999999999 M 48.30009340000001,12.299999999999926 M 10.0,12.30000000000004 L 10.0,12.499999999999972 M 48.10009340000002,12.499999999999943 M 48.10009340000002,22.024999999999977 M 67.15039340000007,22.024999999999977 M 67.15009340000006,26.787000000000006 "
  />
  <path id="face2-cut"
 style="fill:none;stroke:#0000FF;stroke-width:0.1;stroke-miterlimit:4;stroke-dasharray:none;stroke-linejoin:round;stroke-linecap:round"
        d="M 48.10009340000002,12.499999999999943 M 10.0,12.499999999999972 L 10.0,15.0 L 45.60009339999999,15.0 L 45.60009339999999,24.525000000000006 L 64.65023590315002,24.525000000000006 L 64.65023590315002,29.287000000000035 L 88.70039340000002,29.286999999999978 L 88.71511525253013,22.26198902083047 L 88.71773478939761,21.011991765622923 L 88.7203543262651,19.761994510415263 L 105.25029339999998,19.761994510415406 L 105.25029339999998,17.261999999999915 M 86.20039340000002,17.261999999999972 M 86.20039340000002,26.787000000000006 M 67.15009340000006,26.787000000000006 M 67.15039340000007,22.024999999999977 M 48.10009340000002,22.024999999999977 "
  />
  <path id="face0-interior"
 style="fill:none;stroke:#FF0000;stroke-width:0.1;stroke-miterlimit:4;stroke-dasharray:none;stroke-linejoin:round;stroke-linecap:round"
        d="M 10.0,10.0 M 10.0,12.30000000000004 L 48.30009340000001,12.299999999999926 L 48.30009340000001,21.82499999999999 L 67.35039340000003,21.82499999999999 L 67.35009340000002,26.587000000000046 L 86.00039340000001,26.58699999999996 L 86.00039340000001,17.062000000000097 L 105.25029339999998,17.061999999999813 M 105.25029339999998,14.761999999999887 M 83.70039340000005,14.761999999999887 M 83.70039340000005,24.286999999999978 M 69.65039340000004,24.286999999999978 M 69.65039340000004,19.525000000000006 M 50.60009340000002,19.525000000000006 M 50.60009340000002,10.0 "
  />
  <path id="face1-interior"
 style="fill:none;stroke:#FF0000;stroke-width:0.1;stroke-miterlimit:4;stroke-dasharray:none;stroke-linejoin:round;stroke-linecap:round"
        d="M 86.20039340000002,26.787000000000006 L 86.20039340000002,17.261999999999972 L 105.25029339999998,17.261999999999915 M 105.25029339999998,17.061999999999813 M 86.00039340000001,17.062000000000097 M 86.00039340000001,26.58699999999996 M 67.35009340000002,26.587000000000046 M 67.35039340000003,21.82499999999999 M 48.30009340000001,21.82499999999999 M 48.30009340000001,12.299999999999926 M 10.0,12.30000000000004 M 10.0,12.499999999999972 L 48.10009340000002,12.499999999999943 L 48.10009340000002,22.024999999999977 L 67.15039340000007,22.024999999999977 L 67.15009340000006,26.787000000000006 L 86.20039340000002,26.787000000000006 "
  />
  <path id="face2-interior"
 style="fill:none;stroke:#FF0000;stroke-width:0.1;stroke-miterlimit:4;stroke-dasharray:none;stroke-linejoin:round;stroke-linecap:round"
        d="M 48.10009340000002,12.499999999999943 M 10.0,12.499999999999972 M 10.0,15.0 M 45.60009339999999,15.0 M 45.60009339999999,24.525000000000006 M 64.65023590315002,24.525000000000006 M 64.65023590315002,29.287000000000035 M 88.70039340000002,29.286999999999978 M 88.71511525253013,22.26198902083047 M 88.71773478939761,21.011991765622923 M 88.7203543262651,19.761994510415263 M 105.25029339999998,19.761994510415406 M 105.25029339999998,17.261999999999915 M 86.20039340000002,17.261999999999972 M 86.20039340000002,26.787000000000006 M 67.15009340000006,26.787000000000006 M 67.15039340000007,22.024999999999977 M 48.10009340000002,22.024999999999977 "
  />
  <path id="face0-interior"
 style="fill:none;stroke:#00FF00;stroke-width:0.1;stroke-miterlimit:4;stroke-dasharray:none;stroke-linejoin:round;stroke-linecap:round"
        d="M 10.0,10.0 M 10.0,12.30000000000004 M 48.30009340000001,12.299999999999926 M 48.30009340000001,21.82499999999999 M 67.35039340000003,21.82499999999999 M 67.35009340000002,26.587000000000046 M 86.00039340000001,26.58699999999996 M 86.00039340000001,17.062000000000097 M 105.25029339999998,17.061999999999813 M 105.25029339999998,14.761999999999887 M 83.70039340000005,14.761999999999887 M 83.70039340000005,24.286999999999978 M 69.65039340000004,24.286999999999978 M 69.65039340000004,19.525000000000006 M 50.60009340000002,19.525000000000006 M 50.60009340000002,10.0 "
  />
  <path id="face1-interior"
 style="fill:none;stroke:#00FF00;stroke-width:0.1;stroke-miterlimit:4;stroke-dasharray:none;stroke-linejoin:round;stroke-linecap:round"
        d="M 86.20039340000002,26.787000000000006 M 86.20039340000002,17.261999999999972 M 105.25029339999998,17.261999999999915 M 105.25029339999998,17.061999999999813 M 86.00039340000001,17.062000000000097 M 86.00039340000001,26.58699999999996 M 67.35009340000002,26.587000000000046 M 67.35039340000003,21.82499999999999 M 48.30009340000001,21.82499999999999 M 48.30009340000001,12.299999999999926 M 10.0,12.30000000000004 M 10.0,12.499999999999972 M 48.10009340000002,12.499999999999943 M 48.10009340000002,22.024999999999977 M 67.15039340000007,22.024999999999977 M 67.15009340000006,26.787000000000006 "
  />
  <path id="face2-interior"
 style="fill:none;stroke:#00FF00;stroke-width:0.1;stroke-miterlimit:4;stroke-dasharray:none;stroke-linejoin:round;stroke-linecap:round"
        d="M 48.10009340000002,12.499999999999943 M 10.0,12.499999999999972 M 10.0,15.0 M 45.60009339999999,15.0 M 45.60009339999999,24.525000000000006 M 64.65023590315002,24.525000000000006 M 64.65023590315002,29.287000000000035 M 88.70039340000002,29.286999999999978 M 88.71511525253013,22.26198902083047 M 88.71773478939761,21.011991765622923 M 88.7203543262651,19.761994510415263 M 105.25029339999998,19.761994510415406 M 105.25029339999998,17.261999999999915 M 86.20039340000002,17.261999999999972 M 86.20039340000002,26.787000000000006 M 67.15009340000006,26.787000000000006 M 67.15039340000007,22.024999999999977 M 48.10009340000002,22.024999999999977 "
  />
</svg>
