<?xml version="1.0" standalone="no"?>
<!DOCTYPE svg PUBLIC "-//W3C//DTD SVG 1.1//EN" "http://www.w3.org/Graphics/SVG/1.1/DTD/svg11.dtd">
<svg width="126.25029339999998mm" height="330.51229339999986mm"
 viewBox="0 0 126.25029339999998 330.51229339999986"
 xmlns="http://www.w3.org/2000/svg" version="1.1"
 xmlns:xlink="http://www.w3.org/1999/xlink">
<desc>Output from Flights of Ideas SVG Sketchup Plugin</desc>

  <path id="face0-cut"
 style="fill:none;stroke:#0000FF;stroke-width:0.1;stroke-miterlimit:4;stroke-dasharray:none;stroke-linejoin:round;stroke-linecap:round"
        d="M 10.0,167.39999999999978 L 16.0,167.39999999999978 M 16.0,162.63799999999978 M 10.0,162.63799999999978 L 10.0,167.39999999999978 "
  />
  <path id="face1-cut"
 style="fill:none;stroke:#0000FF;stroke-width:0.1;stroke-miterlimit:4;stroke-dasharray:none;stroke-linejoin:round;stroke-linecap:round"
        d="M 110.25029339999998,167.39999999999978 M 110.25029339999998,15.500000000000028 M 105.25029339999998,15.500000000000028 M 100.25029339999998,15.500000000000028 M 95.2502934,15.500000000000028 M 16.00000000000003,15.500000000000028 M 16.0,162.63799999999978 M 16.0,167.39999999999978 L 110.25029339999998,167.39999999999978 "
  />
  <path id="face2-cut"
 style="fill:none;stroke:#0000FF;stroke-width:0.1;stroke-miterlimit:4;stroke-dasharray:none;stroke-linejoin:round;stroke-linecap:round"
        d="M 10.0,162.63799999999978 M 16.0,162.63799999999978 M 16.00000000000003,15.500000000000028 M 95.2502934,15.500000000000028 M 100.25029339999998,15.500000000000028 M 105.25029339999998,15.500000000000028 M 110.25029339999998,15.500000000000028 M 110.25029339999998,167.39999999999978 L 116.25029339999998,167.39999999999978 L 116.25029339999998,13.000000000000085 L 116.1480708788672,12.223542864692462 L 115.84836961135329,11.500000000000057 L 115.37161374355964,10.878679656440369 L 114.75029339999992,10.401923788646712 L 114.02675053530754,10.102222521132887 L 113.25029339999998,10.000000000000028 L 13.0,10.0 L 12.223542864692462,10.102222521132859 L 11.499999999999972,10.401923788646712 L 10.878679656440369,10.878679656440369 L 10.401923788646684,11.500000000000057 L 10.102222521132802,12.223542864692462 L 10.0,13.000000000000057 L 10.0,162.63799999999978 "
  />
  <path id="face3-cut"
 style="fill:none;stroke:#0000FF;stroke-width:0.1;stroke-miterlimit:4;stroke-dasharray:none;stroke-linejoin:round;stroke-linecap:round"
        d="M 16.0,315.01229339999975 M 110.25029339999998,315.01229339999975 M 110.25029339999998,182.1619999999998 M 110.25029339999998,177.39999999999978 L 16.0,177.3999999999998 "
  />
  <path id="face4-cut"
 style="fill:none;stroke:#0000FF;stroke-width:0.1;stroke-miterlimit:4;stroke-dasharray:none;stroke-linejoin:round;stroke-linecap:round"
        d="M 116.25029339999998,182.1619999999998 M 110.25029339999998,182.1619999999998 M 110.25029339999998,315.01229339999975 M 16.0,315.01229339999975 M 16.0,177.3999999999998 L 10.0,177.39999999999978 L 10.0,317.5122933999998 L 10.102222521132774,318.2887505353074 L 10.401923788646627,319.01229339999986 L 10.87867965644034,319.6336137435595 L 11.5,320.1103696113531 L 12.223542864692433,320.41007087886703 L 13.0,320.51229339999986 L 113.25029339999998,320.5122933999995 L 114.02675053530754,320.4100708788669 L 114.75029339999998,320.11036961135306 L 115.37161374355964,319.63361374355964 L 115.84836961135329,319.0122933999999 L 116.14807087886714,318.28875053530714 L 116.25029339999998,317.51229339999924 L 116.25029339999998,182.1619999999998 "
  />
  <path id="face5-cut"
 style="fill:none;stroke:#0000FF;stroke-width:0.1;stroke-miterlimit:4;stroke-dasharray:none;stroke-linejoin:round;stroke-linecap:round"
        d="M 110.25029339999998,177.39999999999978 M 110.25029339999998,182.1619999999998 M 116.25029339999998,182.1619999999998 L 116.25029339999998,177.3999999999998 L 110.25029339999998,177.39999999999978 "
  />
  <path id="face0-interior"
 style="fill:none;stroke:#FF0000;stroke-width:0.1;stroke-miterlimit:4;stroke-dasharray:none;stroke-linejoin:round;stroke-linecap:round"
        d="M 10.0,167.39999999999978 M 16.0,167.39999999999978 L 16.0,162.63799999999978 L 10.0,162.63799999999978 "
  />
  <path id="face1-interior"
 style="fill:none;stroke:#FF0000;stroke-width:0.1;stroke-miterlimit:4;stroke-dasharray:none;stroke-linejoin:round;stroke-linecap:round"
        d="M 110.25029339999998,167.39999999999978 L 110.25029339999998,15.500000000000028 L 105.25029339999998,15.500000000000028 L 100.25029339999998,15.500000000000028 L 95.2502934,15.500000000000028 L 16.00000000000003,15.500000000000028 L 16.0,162.63799999999978 M 16.0,167.39999999999978 "
  />
  <path id="face2-interior"
 style="fill:none;stroke:#FF0000;stroke-width:0.1;stroke-miterlimit:4;stroke-dasharray:none;stroke-linejoin:round;stroke-linecap:round"
        d="M 10.0,162.63799999999978 M 16.0,162.63799999999978 M 16.00000000000003,15.500000000000028 M 95.2502934,15.500000000000028 M 100.25029339999998,15.500000000000028 M 105.25029339999998,15.500000000000028 M 110.25029339999998,15.500000000000028 M 110.25029339999998,167.39999999999978 M 116.25029339999998,167.39999999999978 M 116.25029339999998,13.000000000000085 M 116.1480708788672,12.223542864692462 M 115.84836961135329,11.500000000000057 M 115.37161374355964,10.878679656440369 M 114.75029339999992,10.401923788646712 M 114.02675053530754,10.102222521132887 M 113.25029339999998,10.000000000000028 M 13.0,10.0 M 12.223542864692462,10.102222521132859 M 11.499999999999972,10.401923788646712 M 10.878679656440369,10.878679656440369 M 10.401923788646684,11.500000000000057 M 10.102222521132802,12.223542864692462 M 10.0,13.000000000000057 "
  />
  <path id="face3-interior"
 style="fill:none;stroke:#FF0000;stroke-width:0.1;stroke-miterlimit:4;stroke-dasharray:none;stroke-linejoin:round;stroke-linecap:round"
        d="M 16.0,315.01229339999975 L 110.25029339999998,315.01229339999975 L 110.25029339999998,182.1619999999998 L 110.25029339999998,177.39999999999978 M 16.0,177.3999999999998 L 16.0,315.01229339999975 "
  />
  <path id="face4-interior"
 style="fill:none;stroke:#FF0000;stroke-width:0.1;stroke-miterlimit:4;stroke-dasharray:none;stroke-linejoin:round;stroke-linecap:round"
        d="M 116.25029339999998,182.1619999999998 L 110.25029339999998,182.1619999999998 M 110.25029339999998,315.01229339999975 M 16.0,315.01229339999975 M 16.0,177.3999999999998 M 10.0,177.39999999999978 M 10.0,317.5122933999998 M 10.102222521132774,318.2887505353074 M 10.401923788646627,319.01229339999986 M 10.87867965644034,319.6336137435595 M 11.5,320.1103696113531 M 12.223542864692433,320.41007087886703 M 13.0,320.51229339999986 M 113.25029339999998,320.5122933999995 M 114.02675053530754,320.4100708788669 M 114.75029339999998,320.11036961135306 M 115.37161374355964,319.63361374355964 M 115.84836961135329,319.0122933999999 M 116.14807087886714,318.28875053530714 M 116.25029339999998,317.51229339999924 "
  />
  <path id="face5-interior"
 style="fill:none;stroke:#FF0000;stroke-width:0.1;stroke-miterlimit:4;stroke-dasharray:none;stroke-linejoin:round;stroke-linecap:round"
        d="M 110.25029339999998,177.39999999999978 M 110.25029339999998,182.1619999999998 M 116.25029339999998,182.1619999999998 M 116.25029339999998,177.3999999999998 "
  />
  <path id="face0-interior"
 style="fill:none;stroke:#00FF00;stroke-width:0.1;stroke-miterlimit:4;stroke-dasharray:none;stroke-linejoin:round;stroke-linecap:round"
        d="M 10.0,167.39999999999978 M 16.0,167.39999999999978 M 16.0,162.63799999999978 M 10.0,162.63799999999978 "
  />
  <path id="face1-interior"
 style="fill:none;stroke:#00FF00;stroke-width:0.1;stroke-miterlimit:4;stroke-dasharray:none;stroke-linejoin:round;stroke-linecap:round"
        d="M 110.25029339999998,167.39999999999978 M 110.25029339999998,15.500000000000028 M 105.25029339999998,15.500000000000028 M 100.25029339999998,15.500000000000028 M 95.2502934,15.500000000000028 M 16.00000000000003,15.500000000000028 M 16.0,162.63799999999978 M 16.0,167.39999999999978 "
  />
  <path id="face2-interior"
 style="fill:none;stroke:#00FF00;stroke-width:0.1;stroke-miterlimit:4;stroke-dasharray:none;stroke-linejoin:round;stroke-linecap:round"
        d="M 10.0,162.63799999999978 M 16.0,162.63799999999978 M 16.00000000000003,15.500000000000028 M 95.2502934,15.500000000000028 M 100.25029339999998,15.500000000000028 M 105.25029339999998,15.500000000000028 M 110.25029339999998,15.500000000000028 M 110.25029339999998,167.39999999999978 M 116.25029339999998,167.39999999999978 M 116.25029339999998,13.000000000000085 M 116.1480708788672,12.223542864692462 M 115.84836961135329,11.500000000000057 M 115.37161374355964,10.878679656440369 M 114.75029339999992,10.401923788646712 M 114.02675053530754,10.102222521132887 M 113.25029339999998,10.000000000000028 M 13.0,10.0 M 12.223542864692462,10.102222521132859 M 11.499999999999972,10.401923788646712 M 10.878679656440369,10.878679656440369 M 10.401923788646684,11.500000000000057 M 10.102222521132802,12.223542864692462 M 10.0,13.000000000000057 "
  />
  <path id="face3-interior"
 style="fill:none;stroke:#00FF00;stroke-width:0.1;stroke-miterlimit:4;stroke-dasharray:none;stroke-linejoin:round;stroke-linecap:round"
        d="M 16.0,315.01229339999975 M 110.25029339999998,315.01229339999975 M 110.25029339999998,182.1619999999998 M 110.25029339999998,177.39999999999978 M 16.0,177.3999999999998 "
  />
  <path id="face4-interior"
 style="fill:none;stroke:#00FF00;stroke-width:0.1;stroke-miterlimit:4;stroke-dasharray:none;stroke-linejoin:round;stroke-linecap:round"
        d="M 116.25029339999998,182.1619999999998 M 110.25029339999998,182.1619999999998 M 110.25029339999998,315.01229339999975 M 16.0,315.01229339999975 M 16.0,177.3999999999998 M 10.0,177.39999999999978 M 10.0,317.5122933999998 M 10.102222521132774,318.2887505353074 M 10.401923788646627,319.01229339999986 M 10.87867965644034,319.6336137435595 M 11.5,320.1103696113531 M 12.223542864692433,320.41007087886703 M 13.0,320.51229339999986 M 113.25029339999998,320.5122933999995 M 114.02675053530754,320.4100708788669 M 114.75029339999998,320.11036961135306 M 115.37161374355964,319.63361374355964 M 115.84836961135329,319.0122933999999 M 116.14807087886714,318.28875053530714 M 116.25029339999998,317.51229339999924 "
  />
  <path id="face5-interior"
 style="fill:none;stroke:#00FF00;stroke-width:0.1;stroke-miterlimit:4;stroke-dasharray:none;stroke-linejoin:round;stroke-linecap:round"
        d="M 110.25029339999998,177.39999999999978 M 110.25029339999998,182.1619999999998 M 116.25029339999998,182.1619999999998 M 116.25029339999998,177.3999999999998 "
  />
</svg>
